<?xml version="1.0" encoding="utf-8"?>
<!-- Generator: Adobe Illustrator 19.2.1, SVG Export Plug-In . SVG Version: 6.00 Build 0)  -->
<svg version="1.1" xmlns="http://www.w3.org/2000/svg" xmlns:xlink="http://www.w3.org/1999/xlink" x="0px" y="0px" width="24px"
	 height="24px" viewBox="0 0 24 24" enable-background="new 0 0 24 24" xml:space="preserve">
<g id="Filled_Icons_1_">
	<g id="Filled_Icons" fill="#7cc4f8">
		<g>
			<path d="M22,8V2.5c0.024-0.349-0.358-0.608-0.695-0.455C17.674,3.707,14.622,5.252,9,5.795v9.411
				c5.622,0.543,8.674,2.087,12.305,3.749c0.337,0.154,0.72-0.106,0.695-0.455V13c1.114,0,2.012-0.898,2.012-2v-1
				C24.012,8.898,23.114,8,22,8z M23.012,11c0,0.552-0.449,1-1,1V9c0.551,0,1,0.449,1,1V11z"/>
			<path d="M3.512,6c-1.931,0-3.5,1.57-3.5,3.5v2c0,1.931,1.569,3.5,3.5,3.5H6V6H3.512z"/>
			<path d="M7,15.027V5.5C7,5.224,7.224,5,7.5,5S8,5.224,8,5.5v9.527c0,2.567,1.427,4.876,3.724,6.025
				c0.247,0.125,0.346,0.428,0.224,0.671c-0.123,0.247-0.424,0.347-0.671,0.224C8.639,20.627,7,17.976,7,15.027z"/>
		</g>
	</g>
	<g id="New_icons">
	</g>
</g>
<g id="Invisible_Shape">
	<rect fill="none" width="24" height="24"/>
</g>
</svg>
